<svg width="201" height="43" viewBox="0 0 201 43" fill="none" xmlns="http://www.w3.org/2000/svg">
<rect width="201" height="43" fill="white"/>
<rect x="1" y="7" width="190" height="35" stroke="black" stroke-width="2"/>
<rect x="10" y="1" width="190" height="35" fill="#90A595" stroke="black" stroke-width="2"/>
<path d="M45.5 14H44.125V15.375H42.75V18.125H46.875V15.375H45.5V14ZM46.875 25V19.5H42.75V25H40V15.375H41.375V14H42.75V12.625H44.125V11.25H45.5V12.625H46.875V14H48.25V15.375H49.625V25H46.875ZM57.875 16.75H56.5V18.125H55.125V23.625H57.8643L57.875 23.6357V25H53.75V23.625H52.375V18.125H53.75V16.75H55.125V15.375H57.875V12.625H56.5V11.25H60.625V23.625H62V25H59.25V23.625H57.875V16.75ZM70.25 16.75H68.875V18.125H67.5V23.625H70.2393L70.25 23.6357V25H66.125V23.625H64.75V18.125H66.125V16.75H67.5V15.375H70.25V12.625H68.875V11.25H73V23.625H74.375V25H71.625V23.625H70.25V16.75ZM89.5 15.375H92.25V12.625H93.625V11.25H95V15.375H97.75V16.75H95V23.625H96.375V22.25H99.125V23.625H97.75V25H93.625V23.625H92.25V16.75H89.5V15.375ZM108.75 16.75H104.625V23.625H108.75V16.75ZM103.25 23.625H101.875V16.75H103.25V15.375H110.125V16.75H111.5V23.625H110.125V25H103.25V23.625ZM133.5 16.75H129.375V23.625H133.5V22.25H136.25V23.625H134.875V25H128V23.625H126.625V16.75H128V15.375H134.875V16.75H136.25V18.125H133.5V16.75ZM144.5 25H140.375V23.625H139V19.5H140.375V18.125H144.5V16.75H140.375V15.375H145.875V16.75H147.25V23.625H148.625V25H145.875V23.625H144.511L144.5 23.6143V19.5H141.75V23.625H144.5V25ZM156.875 18.125H155.5V23.625H156.875V25H151.375V23.625H152.75V16.75H151.375V15.375H154.125V16.75H155.5V15.375H159.625V16.75H161V19.5H158.25V16.75H156.875V18.125ZM163.75 15.375H166.5V12.625H167.875V11.25H169.25V15.375H172V16.75H169.25V23.625H170.625V22.25H173.375V23.625H172V25H167.875V23.625H166.5V16.75H163.75V15.375Z" fill="black"/>
<rect x="6" width="2" height="2" fill="white"/>
<rect y="6" width="2" height="2" fill="white"/>
<rect x="9" width="2" height="2" fill="white"/>
<rect x="198" width="3" height="2" fill="white"/>
<rect x="6" y="35" width="2" height="2" fill="white"/>
<rect y="41" width="2" height="2" fill="white"/>
<rect x="9" y="35" width="2" height="2" fill="white"/>
<rect x="198" y="35" width="3" height="2" fill="white"/>
<rect x="190" y="41" width="2" height="2" fill="white"/>
</svg>
