<svg width="44" height="44" viewBox="0 0 44 44" fill="none" xmlns="http://www.w3.org/2000/svg">
<rect width="44" height="44" fill="white"/>
<rect x="1" y="7" width="37" height="36" fill="white" stroke="black" stroke-width="2"/>
<rect x="6" y="1" width="37" height="36" fill="#E5DDD5" stroke="black" stroke-width="2"/>
<rect x="10" y="7" width="6" height="2" fill="black"/>
<rect x="17" y="27" width="4" height="4" fill="black"/>
<rect x="28" y="27" width="4" height="4" fill="black"/>
<rect x="16" y="14" width="17" height="10" fill="#C7BFB6" stroke="black" stroke-width="2"/>
<rect x="15" y="23" width="2" height="2" fill="#E5DDD5"/>
<rect x="17" y="23" width="2" height="2" fill="#E5DDD5"/>
<rect x="32" y="23" width="2" height="2" fill="#E5DDD5"/>
<rect x="30" y="23" width="2" height="2" fill="#E5DDD5"/>
<rect x="14" y="9" width="2" height="2" fill="black"/>
<rect x="20" y="27" width="1" height="1" fill="#E5DDD5"/>
<rect x="31" y="27" width="1" height="1" fill="#E5DDD5"/>
<rect x="5" width="2" height="2" fill="white"/>
<rect y="6" width="2" height="2" fill="white"/>
<rect x="5" y="36" width="2" height="2" fill="white"/>
<rect y="42" width="2" height="2" fill="white"/>
<rect x="37" y="42" width="2" height="2" fill="white"/>
<rect x="42" width="2" height="2" fill="white"/>
<rect x="42" y="36" width="2" height="2" fill="white"/>
</svg>
