<svg width="526" height="41" viewBox="0 0 526 41" fill="none" xmlns="http://www.w3.org/2000/svg">
<rect width="526" height="41" fill="white"/>
<rect x="1" y="1" width="399" height="39" fill="#E5DDD5" stroke="black" stroke-width="2"/>
<rect x="414" y="1" width="111" height="39" fill="#E5DDD5" stroke="black" stroke-width="2"/>
<path d="M434 22.875H436.75V25.625H440.875V21.5H439.5V20.125H436.75V18.75H435.375V17.375H434V14.625H435.375V13.25H442.25V14.625H443.625V17.375H440.875V14.625H436.75V17.375H438.125V18.75H440.875V20.125H442.25V21.5H443.625V25.625H442.25V27H435.375V25.625H434V22.875ZM449.125 20.125H453.25V18.75H449.125V20.125ZM447.75 17.375H454.625V18.75H456V21.5H449.125V25.625H453.25V24.25H456V25.625H454.625V27H447.75V25.625H446.375V18.75H447.75V17.375ZM464.25 27H460.125V25.625H458.75V21.5H460.125V20.125H464.25V18.75H460.125V17.375H465.625V18.75H467V25.625H468.375V27H465.625V25.625H464.261L464.25 25.6143V21.5H461.5V25.625H464.25V27ZM476.625 20.125H475.25V25.625H476.625V27H471.125V25.625H472.5V18.75H471.125V17.375H473.875V18.75H475.25V17.375H479.375V18.75H480.75V21.5H478V18.75H476.625V20.125ZM490.375 18.75H486.25V25.625H490.375V24.25H493.125V25.625H491.75V27H484.875V25.625H483.5V18.75H484.875V17.375H491.75V18.75H493.125V20.125H490.375V18.75ZM501.375 17.375H504.125V18.75H505.5V27H502.75V18.75H501.375V17.375ZM500 27H495.875V25.625H497.25V14.625H495.875V13.25H500V18.75H501.375V20.125H500V27Z" fill="black"/>
<path d="M11.75 25.625H13.125L13.1089 14.6143H11.7178V16.0054L10.375 16V17.375H9V13.25H20V17.375H18.625V16L17.25 15.9893L17.2285 14.582L15.8535 14.5767L15.875 25.625H17.25V27H11.75V25.625ZM26.875 20.125H25.5V25.625H26.875V27H21.375V25.625H22.75V18.75H21.375V17.375H24.125V18.75H25.5V17.375H29.625V18.75H31V21.5H28.25V18.75H26.875V20.125ZM33.75 29.75H39.25V28.375H40.625V27H35.125V25.625H33.75V17.375H36.5V25.625H40.625V17.375H43.375V28.375H42V29.75H40.625V31.125H33.75V29.75ZM65.375 18.75H61.25V20.125H62.625V21.5H65.375V22.875H66.75V24.25H68.125V25.625H66.75V27H59.875V25.625H58.5V24.25H61.25V25.625H65.375V24.25H64V22.875H61.25V21.5H59.875V20.125H58.5V18.75H59.875V17.375H66.75V18.75H68.125V20.125H65.375V18.75ZM77.75 18.75H73.625V25.625H77.75V18.75ZM72.25 25.625H70.875V18.75H72.25V17.375H79.125V18.75H80.5V25.625H79.125V27H72.25V25.625ZM91.5 20.125H90.125V25.625H87.375V20.125H86V27H83.25V17.375H87.375V18.75H90.125V17.375H92.875V18.75H94.25V27H91.5V20.125ZM98.375 20.125H102.5V18.75H98.375V20.125ZM97 17.375H103.875V18.75H105.25V21.5H98.375V25.625H102.5V24.25H105.25V25.625H103.875V27H97V25.625H95.625V18.75H97V17.375ZM108 17.375H110.75V14.625H112.125V13.25H113.5V17.375H116.25V18.75H113.5V25.625H114.875V24.25H117.625V25.625H116.25V27H112.125V25.625H110.75V18.75H108V17.375ZM125.875 17.375H128.625V18.75H130V27H127.25V18.75H125.875V17.375ZM124.5 27H120.375V25.625H121.75V14.625H120.375V13.25H124.5V18.75H125.875V20.125H124.5V27ZM136.875 13.25H139.625V16H136.875V13.25ZM135.5 17.375H139.625V25.625H141V27H135.5V25.625H136.875V18.75H135.5V17.375ZM146.5 18.75H145.125V17.375H147.875V18.75H149.25V27H146.5V18.75ZM149.25 17.375H153.375V18.75H154.75V27H152V18.75H149.25V17.375ZM163 18.7607L163.011 18.75H164.375V17.375H167.125V18.75H165.75V29.75H164.375V31.125H158.875V29.75H157.5V28.375H160.25V29.75H163V27H158.875V25.625H157.5V18.75H158.875V17.375H163V18.75H160.25V25.625H163V18.7607ZM185 13.25H189.125V25.625H190.5V27H185V25.625H186.375V14.625H185V13.25ZM198.75 13.25H201.5V16H198.75V13.25ZM197.375 17.375H201.5V25.625H202.875V27H197.375V25.625H198.75V18.75H197.375V17.375ZM212.5 18.75H213.875V17.375H216.625V18.75H215.25V20.125H213.875V22.875H215.25V24.25H216.625V27H213.875V24.25H212.5V22.875H211.125V27H207V25.625H208.375V14.625H207V13.25H211.125V20.125H212.5V18.75ZM222.125 20.125H226.25V18.75H222.125V20.125ZM220.75 17.375H227.625V18.75H229V21.5H222.125V25.625H226.25V24.25H229V25.625H227.625V27H220.75V25.625H219.375V18.75H220.75V17.375ZM235.875 24.25H238.625V27H235.875V24.25ZM248.25 24.25H251V27H248.25V24.25ZM260.625 24.25H263.375V27H260.625V24.25Z" fill="#C7BFB6"/>
<rect y="39" width="2" height="2" fill="white"/>
<rect width="2" height="2" fill="white"/>
<rect x="400" width="1" height="2" fill="white"/>
<rect x="413" width="2" height="2" fill="white"/>
<rect x="524" width="2" height="2" fill="white"/>
<rect x="400" y="39" width="1" height="2" fill="white"/>
<rect x="413" y="39" width="2" height="2" fill="white"/>
<rect x="524" y="39" width="2" height="2" fill="white"/>
</svg>
