<svg width="113" height="41" viewBox="0 0 113 41" fill="none" xmlns="http://www.w3.org/2000/svg">
<rect width="113" height="41" fill="white"/>
<rect x="1" y="1" width="111" height="39" fill="#E5DDD5" stroke="black" stroke-width="2"/>
<path d="M21 22.875H23.75V25.625H27.875V21.5H26.5V20.125H23.75V18.75H22.375V17.375H21V14.625H22.375V13.25H29.25V14.625H30.625V17.375H27.875V14.625H23.75V17.375H25.125V18.75H27.875V20.125H29.25V21.5H30.625V25.625H29.25V27H22.375V25.625H21V22.875ZM36.125 20.125H40.25V18.75H36.125V20.125ZM34.75 17.375H41.625V18.75H43V21.5H36.125V25.625H40.25V24.25H43V25.625H41.625V27H34.75V25.625H33.375V18.75H34.75V17.375ZM51.25 27H47.125V25.625H45.75V21.5H47.125V20.125H51.25V18.75H47.125V17.375H52.625V18.75H54V25.625H55.375V27H52.625V25.625H51.2607L51.25 25.6143V21.5H48.5V25.625H51.25V27ZM63.625 20.125H62.25V25.625H63.625V27H58.125V25.625H59.5V18.75H58.125V17.375H60.875V18.75H62.25V17.375H66.375V18.75H67.75V21.5H65V18.75H63.625V20.125ZM77.375 18.75H73.25V25.625H77.375V24.25H80.125V25.625H78.75V27H71.875V25.625H70.5V18.75H71.875V17.375H78.75V18.75H80.125V20.125H77.375V18.75ZM88.375 17.375H91.125V18.75H92.5V27H89.75V18.75H88.375V17.375ZM87 27H82.875V25.625H84.25V14.625H82.875V13.25H87V18.75H88.375V20.125H87V27Z" fill="black"/>
<rect width="2" height="2" fill="white"/>
<rect x="111" width="2" height="2" fill="white"/>
<rect y="39" width="2" height="2" fill="white"/>
<rect x="111" y="39" width="2" height="2" fill="white"/>
</svg>
